<?xml version="1.0" encoding="iso-8859-1"?>
<!-- Generator: Adobe Illustrator 18.0.0, SVG Export Plug-In . SVG Version: 6.00 Build 0)  -->
<!DOCTYPE svg PUBLIC "-//W3C//DTD SVG 1.1//EN" "http://www.w3.org/Graphics/SVG/1.1/DTD/svg11.dtd">
<svg version="1.1" id="_x31_" xmlns="http://www.w3.org/2000/svg" xmlns:xlink="http://www.w3.org/1999/xlink" x="0px" y="0px"
	 viewBox="0 0 512 512" style="enable-background:new 0 0 512 512;" xml:space="preserve">
<g>
	<rect style="fill:#9CD1AB;" width="512" height="512"/>
	<polygon style="opacity:0.07;fill:#231815;" points="512,199.425 512,512 265.42,512 179.815,426.395 207.665,405.145 
		79.052,276.53 86.425,273.82 36.25,223.64 47.513,218.47 14.847,185.855 124.877,135.58 368.025,282.98 497.15,184.575 	"/>
	<g>
		<polygon style="fill:#C3C4C4;" points="436.7,115.335 334.705,115.335 298.19,168.225 298.19,199.71 298.19,199.71 
			226.405,199.71 213.815,199.71 213.815,168.225 177.3,115.335 75.295,115.335 14.855,184.595 36.26,193.41 36.26,223.63 
			53.89,223.63 53.89,250.075 79.075,250.075 79.075,276.515 115.595,276.515 115.595,316.82 115.595,370.96 179.815,426.37 
			239,426.37 285.59,426.37 332.185,426.37 396.405,370.96 396.405,316.82 396.405,276.515 432.92,276.515 432.92,250.075 
			458.11,250.075 458.11,223.63 475.74,223.63 475.74,193.41 497.145,184.595 		"/>
		<polygon style="fill:#B2B2B2;" points="334.705,115.335 298.19,168.225 298.19,199.71 254.575,199.71 254.575,426.37 
			285.59,426.37 332.185,426.37 396.405,370.96 396.405,316.82 396.405,276.515 432.92,276.515 432.92,250.075 458.11,250.075 
			458.11,223.63 475.74,223.63 475.74,193.41 497.145,184.595 436.7,115.335 		"/>
		<g>
			<polygon style="fill:#F7F7F7;" points="104.89,153.115 78.445,187.115 99.85,187.115 99.85,208.52 117.485,208.52 
				117.485,228.67 143.93,228.67 167.85,206.005 167.85,170.745 155.26,153.115 			"/>
			<polygon style="fill:#E9E8E8;" points="407.105,153.115 356.745,153.115 344.15,170.745 344.15,206.005 368.07,228.67 
				394.515,228.67 394.515,208.52 412.15,208.52 412.15,187.115 433.56,187.115 			"/>
		</g>
		<g>
			<path style="fill:#727171;" d="M193.04,308.635c0,7.3-5.92,13.22-13.225,13.22c-7.305,0-13.22-5.92-13.22-13.22
				c0-7.305,5.915-13.225,13.22-13.225C187.12,295.41,193.04,301.33,193.04,308.635z"/>
			<path style="fill:#727171;" d="M318.965,308.635c0,7.3,5.91,13.22,13.22,13.22c7.3,0,13.225-5.92,13.225-13.22
				c0-7.305-5.925-13.225-13.225-13.225C324.875,295.41,318.965,301.33,318.965,308.635z"/>
		</g>
		<rect x="228.925" y="394.89" style="fill:#727171;" width="54.145" height="7.56"/>
		<polygon style="opacity:0.07;fill:#231815;" points="295.32,285.78 239.105,377.28 287.34,426.37 332.185,426.37 386.99,379.09 		
			"/>
		<polygon style="fill:#595A59;" points="267.335,286.66 244.66,286.66 218.22,286.66 218.22,351.525 238.37,378.645 
			244.66,378.645 267.335,378.645 273.625,378.645 293.78,351.525 293.78,286.66 		"/>
	</g>
</g>
</svg>
